<svg width="256" height="256" viewBox="0 0 256 256" fill="none" xmlns="http://www.w3.org/2000/svg" role="img" aria-label="FetchX logo">
  <defs>
    <linearGradient id="fxPaint" x1="38" y1="34" x2="218" y2="222" gradientUnits="userSpaceOnUse">
      <stop offset="0" stop-color="#61B3FF"/>
      <stop offset="0.55" stop-color="#3D7DFF"/>
      <stop offset="1" stop-color="#2E52D4"/>
    </linearGradient>
    <linearGradient id="xPaint" x1="90" y1="70" x2="188" y2="182" gradientUnits="userSpaceOnUse">
      <stop offset="0" stop-color="#9AF7FF"/>
      <stop offset="1" stop-color="#FFFFFF"/>
    </linearGradient>
    <filter id="soft" x="18" y="14" width="220" height="228" filterUnits="userSpaceOnUse" color-interpolation-filters="sRGB">
      <feFlood flood-opacity="0" result="BackgroundImageFix"/>
      <feColorMatrix in="SourceAlpha" type="matrix" values="0 0 0 0 0 0 0 0 0 0 0 0 0 0 0 0 0 0 127 0" result="hardAlpha"/>
      <feOffset dy="2"/>
      <feGaussianBlur stdDeviation="3"/>
      <feColorMatrix type="matrix" values="0 0 0 0 0.05 0 0 0 0 0.1 0 0 0 0 0.24 0 0 0 0.26 0"/>
      <feBlend mode="normal" in2="BackgroundImageFix" result="effect1_dropShadow_1_1"/>
      <feBlend mode="normal" in="SourceGraphic" in2="effect1_dropShadow_1_1" result="shape"/>
    </filter>
  </defs>

  <g filter="url(#soft)">
    <path d="M54 214V46H188V66H76V112H170V132H76V214H54Z" fill="url(#fxPaint)"/>
    <path d="M86 74H112L147 118L182 74H208L160 133L210 194H184L147 147L110 194H84L134 133L86 74Z" fill="url(#xPaint)"/>

    <path d="M54 214V46H188V66H76V112H170V132H76V214H54Z" stroke="white" stroke-opacity="0.32" stroke-width="1.5"/>
    <path d="M86 74H112L147 118L182 74H208L160 133L210 194H184L147 147L110 194H84L134 133L86 74Z" stroke="#091630" stroke-opacity="0.35" stroke-width="1.5"/>
  </g>
</svg>
